<svg width="41" height="41" viewBox="0 0 41 41" fill="none" xmlns="http://www.w3.org/2000/svg">
<g id="figma">
<g id="figma_2">
<path id="Vector" d="M13.6668 40.9997C17.4388 40.9997 20.5002 37.9383 20.5002 34.1663V27.333H13.6668C9.89483 27.333 6.8335 30.3943 6.8335 34.1663C6.8335 37.9383 9.89483 40.9997 13.6668 40.9997Z" fill="#17CDCA"/>
<path id="Vector_2" d="M6.8335 20.5003C6.8335 16.7283 9.89483 13.667 13.6668 13.667H20.5002V27.3336H13.6668C9.89483 27.3336 6.8335 24.2723 6.8335 20.5003Z" fill="#A259FF"/>
<path id="Vector_3" d="M6.8335 6.83333C6.8335 3.06133 9.89483 0 13.6668 0H20.5002V13.6667H13.6668C9.89483 13.6667 6.8335 10.6053 6.8335 6.83333Z" fill="#F24E1E"/>
<path id="Vector_4" d="M20.5 0H27.3333C31.1054 0 34.1667 3.06133 34.1667 6.83333C34.1667 10.6053 31.1054 13.6667 27.3333 13.6667H20.5V0Z" fill="#FF7262"/>
<path id="Vector_5" d="M34.1667 20.5003C34.1667 24.2723 31.1054 27.3336 27.3333 27.3336C23.5613 27.3336 20.5 24.2723 20.5 20.5003C20.5 16.7283 23.5613 13.667 27.3333 13.667C31.1054 13.667 34.1667 16.7283 34.1667 20.5003Z" fill="#1ABCFE"/>
</g>
</g>
</svg>
