<svg width="42" height="42" viewBox="0 0 42 42" fill="none" xmlns="http://www.w3.org/2000/svg">
<g id="js">
<g id="js_2">
<path id="Vector" d="M41.125 0H0V41.125H41.125V0Z" fill="#F7DF1E"/>
<path id="Vector_2" d="M27.6256 32.1289C28.454 33.4815 29.5318 34.4757 31.4379 34.4757C33.0391 34.4757 34.062 33.6753 34.062 32.5695C34.062 31.2444 33.0111 30.7751 31.2486 30.0041L30.2825 29.5896C27.4938 28.4016 25.6412 26.9132 25.6412 23.7668C25.6412 20.8685 27.8496 18.6621 31.3008 18.6621C33.7578 18.6621 35.5243 19.5172 36.7972 21.7563L33.7879 23.6885C33.1253 22.5004 32.4105 22.0324 31.3008 22.0324C30.1689 22.0324 29.4515 22.7505 29.4515 23.6885C29.4515 24.8478 30.1695 25.3172 31.8276 26.0352L32.7937 26.4491C36.0772 27.8571 37.931 29.2926 37.931 32.5199C37.931 35.9992 35.1979 37.9053 31.5273 37.9053C27.9383 37.9053 25.6197 36.1951 24.4851 33.9534L27.6256 32.1289ZM13.9741 32.4638C14.5812 33.5409 15.1334 34.4515 16.4612 34.4515C17.7308 34.4515 18.5318 33.9547 18.5318 32.0232V18.8827H22.3962V32.0754C22.3962 36.0769 20.0502 37.8982 16.6257 37.8982C13.5315 37.8982 11.7396 36.2969 10.8284 34.3683L13.9741 32.4638Z" fill="black"/>
</g>
</g>
</svg>
