<svg width="40" height="40" viewBox="0 0 40 40" fill="none" xmlns="http://www.w3.org/2000/svg">
<g id="postman">
<g id="postman_2">
<path id="Vector" d="M35.8291 7.77577C33.4113 4.64484 30.1192 2.30125 26.3694 1.0414C22.6195 -0.218457 18.5803 -0.337983 14.7625 0.697935C10.9447 1.73385 7.51984 3.87868 4.9211 6.86117C2.32235 9.84365 0.666437 13.5298 0.162779 17.4535C-0.340878 21.3771 0.330347 25.362 2.09156 28.9041C3.85278 32.4463 6.62487 35.3866 10.0572 37.3532C13.4896 39.3197 17.4281 40.2243 21.3746 39.9524C25.3211 39.6804 29.0983 38.2443 32.2285 35.8255C40.9659 29.0731 42.5784 16.5163 35.8285 7.77577H35.8291Z" fill="#FF6C37"/>
<path id="Vector_2" d="M26.7453 12.7437L18.3123 21.2436L15.9292 18.7936C24.2291 10.4937 25.0622 11.2437 26.7459 12.7437H26.7453Z" fill="black"/>
<path id="Vector_3" d="M18.3124 21.476C18.2377 21.4742 18.1664 21.4445 18.1124 21.3929L15.7124 18.9929C15.6584 18.937 15.6282 18.8622 15.6282 18.7844C15.6282 18.7067 15.6584 18.6319 15.7124 18.576C23.8955 10.393 25.0123 10.7761 26.9454 12.5261C26.9778 12.552 27.0037 12.5851 27.021 12.6227C27.0384 12.6603 27.0468 12.7015 27.0454 12.7429C27.0579 12.8242 27.0267 12.9073 26.9623 12.9598L18.5293 21.3935C18.4701 21.4477 18.3926 21.4774 18.3124 21.4766V21.476ZM16.3455 18.7929L18.3124 20.7597L26.3123 12.7598C26.0361 12.4137 25.642 12.1815 25.2053 12.1077C24.7686 12.0339 24.3201 12.1237 23.9455 12.3598C22.4955 13.0098 20.1624 14.9929 16.3455 18.7929Z" fill="#FF6C37"/>
<path id="Vector_4" d="M20.7292 23.5928L18.4292 21.2428L26.8623 12.9092C29.1292 15.126 25.7623 18.826 20.7292 23.5922V23.5928Z" fill="black"/>
<path id="Vector_5" d="M20.7292 23.8935C20.6555 23.8876 20.5854 23.8585 20.5292 23.8103L18.1793 21.5104C18.144 21.4249 18.144 21.329 18.1793 21.2435C18.1543 21.1734 18.1543 21.0968 18.1793 21.0266L26.6123 12.5936C26.671 12.5385 26.7484 12.5078 26.8289 12.5078C26.9094 12.5078 26.9868 12.5385 27.0454 12.5936C27.3185 12.845 27.5343 13.1522 27.6781 13.4944C27.8218 13.8366 27.8902 14.2057 27.8786 14.5767C27.8786 16.8267 25.3117 19.6598 20.9455 23.7935C20.8872 23.8512 20.8104 23.8866 20.7286 23.8935H20.7292ZM18.8624 21.2435L20.7455 23.126C24.0786 19.976 27.2623 16.726 27.2786 14.5261C27.2967 14.0597 27.1425 13.6029 26.8454 13.243L18.8624 21.2435Z" fill="#FF6C37"/>
<path id="Vector_6" d="M15.9956 18.8437L17.6624 20.5105C17.6731 20.5199 17.6816 20.5315 17.6874 20.5444C17.6933 20.5573 17.6963 20.5713 17.6963 20.5855C17.6963 20.5997 17.6933 20.6137 17.6874 20.6267C17.6816 20.6396 17.6731 20.6511 17.6624 20.6605L14.1456 21.4105C14.0746 21.4258 14.0005 21.4175 13.9347 21.3869C13.8689 21.3562 13.8148 21.3049 13.7809 21.2407C13.7469 21.1765 13.7348 21.103 13.7465 21.0313C13.7582 20.9596 13.793 20.8937 13.8456 20.8436L15.8956 18.8105C15.8956 18.8105 15.9624 18.8105 15.9956 18.8437Z" fill="black"/>
<path id="Vector_7" d="M14.0625 21.743C13.9514 21.7416 13.8425 21.7118 13.7462 21.6563C13.6499 21.6008 13.5695 21.5216 13.5125 21.4262C13.4485 21.3053 13.4252 21.1669 13.4463 21.0317C13.4673 20.8965 13.5316 20.7718 13.6294 20.6762L15.6625 18.6262C15.7358 18.5606 15.8307 18.5244 15.9291 18.5244C16.0274 18.5244 16.1223 18.5606 16.1956 18.6262L17.8625 20.293C17.9612 20.3868 18 20.5287 17.9625 20.6599C17.925 20.7912 17.815 20.8955 17.6794 20.9268L14.1625 21.6768L14.0625 21.743ZM15.9294 19.2099L14.0463 21.093L17.1631 20.4262L15.9294 19.2099Z" fill="#FF6C37"/>
<path id="Vector_8" d="M31.2292 8.05981C30.023 6.89607 28.128 6.84732 26.863 7.94543C25.598 9.04355 25.3817 10.9285 26.3667 12.2848C27.3517 13.641 29.2086 14.021 30.6461 13.1598L28.3792 10.8929L31.2292 8.05981Z" fill="black"/>
<path id="Vector_9" d="M28.979 13.9259C28.286 13.917 27.6109 13.7044 27.0379 13.3145C26.4648 12.9246 26.0192 12.3748 25.7565 11.7334C25.494 11.0925 25.4251 10.3887 25.5584 9.70914C25.6917 9.02953 26.0213 8.40391 26.5065 7.90968C27.1738 7.25467 28.0715 6.8877 29.0065 6.8877C29.9415 6.8877 30.8392 7.25467 31.5065 7.90968C31.5702 7.96343 31.6065 8.0428 31.6065 8.12655C31.6063 8.16776 31.5973 8.20845 31.5801 8.24586C31.5628 8.28328 31.5377 8.31655 31.5065 8.34343L28.8065 10.8934L30.8565 12.9103C30.8897 12.942 30.9147 12.9814 30.9291 13.0249C30.9436 13.0685 30.9472 13.115 30.9396 13.1603C30.9347 13.204 30.9202 13.246 30.8972 13.2835C30.8742 13.321 30.8432 13.353 30.8065 13.3771C30.2558 13.7214 29.6227 13.9113 28.9734 13.9271L28.979 13.9259ZM28.979 7.45906C27.7915 7.46531 26.729 8.17968 26.2834 9.27155C25.8378 10.3634 26.0803 11.6203 26.9128 12.459C27.3268 12.8755 27.857 13.1572 28.4339 13.2673C29.0108 13.3774 29.6075 13.3107 30.1459 13.0759L28.179 11.109C28.1477 11.084 28.1225 11.0523 28.1051 11.0162C28.0878 10.9802 28.0788 10.9406 28.0788 10.9006C28.0788 10.8606 28.0878 10.821 28.1051 10.785C28.1225 10.7489 28.1477 10.7172 28.179 10.6922L30.779 8.0753C30.2622 7.6792 29.6302 7.46261 28.979 7.45843V7.45906Z" fill="#FF6C37"/>
<path id="Vector_10" d="M31.2791 8.10938L28.4292 10.9425L30.696 13.2093C30.9242 13.0783 31.1366 12.9217 31.3291 12.7424C31.9233 12.1145 32.2501 11.2802 32.2408 10.4158C32.2315 9.55137 31.8867 8.72438 31.2791 8.10938Z" fill="black"/>
<path id="Vector_11" d="M30.6452 13.4595C30.6078 13.4616 30.5703 13.4551 30.5357 13.4407C30.5011 13.4264 30.4702 13.4044 30.4452 13.3764L28.1783 11.1095C28.1471 11.0845 28.1218 11.0528 28.1045 11.0167C28.0871 10.9807 28.0781 10.9411 28.0781 10.9011C28.0781 10.8611 28.0871 10.8215 28.1045 10.7855C28.1218 10.7494 28.1471 10.7177 28.1783 10.6927L31.0114 7.90956C31.0388 7.8683 31.076 7.83446 31.1196 7.81105C31.1632 7.78764 31.2119 7.77539 31.2614 7.77539C31.3109 7.77539 31.3597 7.78764 31.4033 7.81105C31.4469 7.83446 31.4841 7.8683 31.5114 7.90956C31.844 8.23544 32.1083 8.6244 32.2886 9.05368C32.469 9.48295 32.5619 9.94391 32.5619 10.4095C32.5619 10.8752 32.469 11.3361 32.2886 11.7654C32.1083 12.1947 31.844 12.5837 31.5114 12.9095C31.3152 13.1176 31.0908 13.2971 30.8446 13.4426C30.7826 13.4739 30.7109 13.4799 30.6446 13.4595H30.6452ZM28.8121 10.8933L30.6952 12.7764C30.8247 12.6856 30.9474 12.5853 31.0621 12.4764C31.6156 11.9243 31.9274 11.1751 31.9289 10.3933C31.9302 9.69364 31.6752 9.01774 31.2121 8.49331L28.8121 10.8933Z" fill="#FF6C37"/>
<path id="Vector_12" d="M27.0956 13.0927C26.8698 12.8807 26.5718 12.7627 26.2621 12.7627C25.9525 12.7627 25.6545 12.8807 25.4287 13.0927L17.8794 20.6251L19.1294 21.892L27.1125 14.892C27.2342 14.7754 27.3308 14.635 27.3962 14.4796C27.4617 14.3242 27.4946 14.157 27.493 13.9884C27.4915 13.8198 27.4554 13.6533 27.387 13.4991C27.3187 13.345 27.2195 13.2064 27.0956 13.0921V13.0927Z" fill="black"/>
<path id="Vector_13" d="M19.0623 22.1932C18.9876 22.1913 18.9163 22.1617 18.8623 22.1101L17.5955 20.8432C17.5414 20.7873 17.5112 20.7125 17.5112 20.6348C17.5112 20.557 17.5414 20.4823 17.5955 20.4263L25.1454 12.9095C25.3629 12.6923 25.6406 12.5455 25.9425 12.488C26.2444 12.4305 26.5567 12.4651 26.8387 12.5872C27.1207 12.7093 27.3596 12.9134 27.5243 13.1729C27.6889 13.4324 27.7719 13.7354 27.7622 14.0426C27.7536 14.2511 27.7034 14.4558 27.6147 14.6447C27.5259 14.8336 27.4004 15.0029 27.2454 15.1426L19.2623 22.1426C19.2043 22.1836 19.1329 22.2015 19.0623 22.1926V22.1932ZM18.1792 20.6257L19.0123 21.4757L26.8454 14.6589C27.0391 14.4901 27.1548 14.2489 27.1623 13.992C27.1698 13.7351 27.0685 13.4839 26.8791 13.3089C26.7043 13.1347 26.4675 13.037 26.2207 13.037C25.9739 13.037 25.7372 13.1347 25.5623 13.3089L18.1792 20.6257Z" fill="#FF6C37"/>
<path id="Vector_14" d="M12.0295 29.2097C12.0081 29.2387 11.9966 29.2737 11.9966 29.3097C11.9966 29.3457 12.0081 29.3807 12.0295 29.4097L12.3626 30.8597C12.3759 30.945 12.3633 31.0324 12.3263 31.1104C12.2893 31.1884 12.2296 31.2535 12.1551 31.2972C12.0808 31.3406 11.9947 31.3593 11.9091 31.3507C11.8235 31.342 11.7429 31.3064 11.6789 31.249L9.39575 29.0491L16.5125 21.876H18.9794L20.6462 23.5428C18.0461 25.8162 15.1469 27.7229 12.0295 29.2097Z" fill="black"/>
<path id="Vector_15" d="M11.8793 31.6598C11.6905 31.656 11.5043 31.5785 11.3793 31.4429L9.19616 29.2598C9.16489 29.2348 9.13965 29.2031 9.1223 29.167C9.10495 29.1309 9.09595 29.0914 9.09595 29.0513C9.09595 29.0113 9.10495 28.9718 9.1223 28.9357C9.13965 28.8996 9.16489 28.8679 9.19616 28.8429L16.3623 21.6599C16.4025 21.6172 16.4549 21.5881 16.5123 21.5767H18.9954C19.0602 21.5539 19.1307 21.5539 19.1954 21.5767L20.8623 23.2436C20.894 23.2728 20.9181 23.3093 20.9326 23.3499C20.9471 23.3905 20.9515 23.434 20.9454 23.4767C20.9466 23.5181 20.9382 23.5592 20.9208 23.5969C20.9035 23.6345 20.8777 23.6676 20.8454 23.6936L20.7123 23.8105C18.1017 25.9869 15.2295 27.8288 12.1624 29.2935L12.4793 30.6435C12.5038 30.7477 12.5047 30.856 12.482 30.9605C12.4593 31.0651 12.4136 31.1632 12.3481 31.2478C12.2827 31.3325 12.1991 31.4014 12.1036 31.4496C12.0081 31.4979 11.9031 31.5242 11.7961 31.5266L11.8793 31.6598ZM9.84615 29.0429L11.8124 31.026C11.8307 31.0424 11.8544 31.0514 11.8789 31.0514C11.9035 31.0514 11.9272 31.0424 11.9455 31.026C11.9578 31.009 11.9644 30.9886 11.9644 30.9676C11.9644 30.9466 11.9578 30.9262 11.9455 30.9091L11.6124 29.4592C11.5861 29.3551 11.5967 29.2452 11.6423 29.148C11.6878 29.0508 11.7656 28.9724 11.8624 28.926C14.847 27.4809 17.6452 25.6788 20.1954 23.5592L18.8286 22.1923H16.5955L9.84615 29.0429Z" fill="#FF6C37"/>
<path id="Vector_16" d="M7.67926 30.7596L9.34612 29.0928L11.913 31.6596L7.82988 31.3765C7.75978 31.371 7.6932 31.3435 7.63965 31.2979C7.5861 31.2523 7.54832 31.191 7.53169 31.1227C7.51505 31.0544 7.52043 30.9825 7.54704 30.9175C7.57366 30.8524 7.62015 30.7973 7.67988 30.7602L7.67926 30.7596Z" fill="black"/>
<path id="Vector_17" d="M11.9624 31.9087L7.89555 31.6256C7.6543 31.6031 7.4468 31.4381 7.3618 31.2175C7.2768 30.9968 7.32868 30.735 7.49555 30.5587L9.16241 28.8919C9.21834 28.8378 9.29307 28.8076 9.37084 28.8076C9.44861 28.8076 9.52334 28.8378 9.57928 28.8919L12.1292 31.4418C12.1645 31.4902 12.1836 31.5485 12.1836 31.6084C12.1836 31.6683 12.1645 31.7266 12.1292 31.775C12.0907 31.8373 12.0317 31.8844 11.9624 31.9081V31.9087ZM7.89555 30.9756L11.2286 31.1925L9.39553 29.4756L7.89555 30.9756Z" fill="#FF6C37"/>
<path id="Vector_18" d="M19.2123 22.0774L15.8455 22.5942L17.7954 20.6611L19.2123 22.0774Z" fill="black"/>
<path id="Vector_19" d="M15.8454 22.9098C15.7895 22.9113 15.7343 22.8962 15.6869 22.8666C15.6394 22.8369 15.6017 22.7939 15.5786 22.7429C15.5431 22.6947 15.5239 22.6363 15.5239 22.5764C15.5239 22.5165 15.5431 22.4581 15.5786 22.4098L17.5116 20.4598C17.5703 20.4047 17.6477 20.374 17.7282 20.374C17.8087 20.374 17.8861 20.4047 17.9448 20.4598L19.3622 21.8761C19.3905 21.921 19.4056 21.973 19.4056 22.0261C19.4056 22.0792 19.3905 22.1312 19.3622 22.1761C19.3483 22.2308 19.3189 22.2804 19.2776 22.3188C19.2363 22.3573 19.1847 22.383 19.1291 22.3929L15.796 22.9098H15.8454ZM17.7954 21.0929L16.7123 22.1761L18.5791 21.8929L17.7954 21.0929Z" fill="#FF6C37"/>
<path id="Vector_20" d="M19.2124 22.0751L16.8625 22.3751C16.7996 22.3894 16.7338 22.383 16.6748 22.3569C16.6158 22.3308 16.5668 22.2865 16.535 22.2304C16.5033 22.1742 16.4904 22.1094 16.4984 22.0454C16.5064 21.9814 16.5348 21.9217 16.5794 21.8751L17.7962 20.6582L19.2124 22.0751Z" fill="black"/>
<path id="Vector_21" d="M16.7954 22.6929C16.6865 22.6919 16.5798 22.662 16.4861 22.6064C16.3925 22.5507 16.3153 22.4713 16.2623 22.3761C16.1987 22.262 16.174 22.1302 16.192 22.0009C16.2101 21.8715 16.2699 21.7515 16.3623 21.6592L17.5792 20.4423C17.6378 20.3872 17.7153 20.3565 17.7957 20.3565C17.8762 20.3565 17.9536 20.3872 18.0123 20.4423L19.4292 21.8592C19.4713 21.8991 19.5009 21.9504 19.5145 22.0068C19.5281 22.0633 19.525 22.1224 19.5056 22.1772C19.4862 22.2319 19.4514 22.2798 19.4053 22.3151C19.3592 22.3504 19.3039 22.3716 19.246 22.3761L16.9129 22.6761L16.7954 22.6929ZM16.7954 22.0761L18.5623 21.8592L17.7792 21.0761L16.7792 22.0761H16.7954ZM31.2953 10.0261C31.2639 9.97356 31.2143 9.93432 31.1559 9.91589C31.0975 9.89745 31.0343 9.90111 30.9784 9.92615C30.9508 9.94013 30.9263 9.9595 30.9064 9.98312C30.8864 10.0067 30.8714 10.0341 30.8622 10.0636C30.8436 10.1232 30.8495 10.1877 30.8784 10.243C30.9953 10.4886 30.9628 10.7793 30.7953 10.993C30.7745 11.0136 30.7582 11.0383 30.7474 11.0655C30.7367 11.0927 30.7317 11.1219 30.7328 11.1511C30.7334 11.2098 30.7557 11.2661 30.7953 11.3093C30.8381 11.3262 30.8857 11.3262 30.9284 11.3093C30.9672 11.319 31.008 11.3179 31.0462 11.3062C31.0845 11.2944 31.1187 11.2723 31.1453 11.2424C31.2825 11.0744 31.3694 10.8709 31.396 10.6556C31.4225 10.4403 31.3876 10.2219 31.2953 10.0255V10.0261Z" fill="#FF6C37"/>
</g>
</g>
</svg>
